{
  "title": "Minions.2015.NEW.TS.XviD.AC3-The Muffin Stuffers",
  "uid": 12116971,
  "size": 974239244,
  "categoryP": "video",
  "categoryS": "movies",
  "magnet": "?xt=urn:btih:21664b98144a1c1b7a7d023601f10db1329a34c4&amp;dn=Minions.2015.NEW.TS.XviD.AC3-The+Muffin+Stuffers&amp;tr=udp%3A%2F%2Ftracker.openbittorrent.com%3A80&amp;tr=udp%3A%2F%2Fopen.demonii.com%3A1337&amp;tr=udp%3A%2F%2Ftracker.coppersurfer.tk%3A6969&amp;tr=udp%3A%2F%2Fexodus.desync.com%3A6969",
  "seeders": 95,
  "leechers": 12,
  "uploader": "Ctrlme",
  "files": 6,
  "time": 1436745339,
  "description": "Minions.2015.NEW.TS.XviD.AC3-The Muffin Stuffers\n\nPoster:  &lt;a href=&quot;\nhttp://imgsay.com/viewshare.php?file=979230j4MdWoR.jpg&quot; rel=&quot;nofollow&quot; target=&quot;_NEW&quot;&gt;\nhttp://imgsay.com/viewshare.php?file=979230j4MdWoR.jpg&lt;/a&gt;\n\nSOURCE: NEW HDTS-MRG http://www.imdb.com/title/tt2293640/\nFIXED THE PERSPECTIVE ISSUE NOTHING ELSE \n\nScreens:   &lt;a href=&quot;\nhttp://imgsay.com/viewshare.php?file=6961400.jpg&quot; rel=&quot;nofollow&quot; target=&quot;_NEW&quot;&gt;\nhttp://imgsay.com/viewshare.php?file=6961400.jpg&lt;/a&gt; &lt;a href=&quot;\nhttp://imgsay.com/viewshare.php?file=6961411.jpg&quot; rel=&quot;nofollow&quot; target=&quot;_NEW&quot;&gt;\nhttp://imgsay.com/viewshare.php?file=6961411.jpg&lt;/a&gt; &lt;a href=&quot;\nhttp://imgsay.com/viewshare.php?file=6961422.jpg&quot; rel=&quot;nofollow&quot; target=&quot;_NEW&quot;&gt;\nhttp://imgsay.com/viewshare.php?file=6961422.jpg&lt;/a&gt; &lt;a href=&quot;\nhttp://imgsay.com/viewshare.php?file=6961433.jpg&quot; rel=&quot;nofollow&quot; target=&quot;_NEW&quot;&gt;\nhttp://imgsay.com/viewshare.php?file=6961433.jpg&lt;/a&gt;\n\nGeneral\nComplete name: Minions.2015.NEW.TS.XviD.AC3-The Muffin Stuffers.avi\nFormat: AVI\nFormat/Info: Audio Video Interleave\nFile size: 908 MiB\nDuration: 1h 23mn\nOverall bit rate: 1 512 Kbps\n\nVideo\nID: 0\nFormat: MPEG-4 Visual\nFormat profile: Advanced Simple@L5\nFormat settings, BVOP: 2\nFormat settings, QPel: No\nFormat settings, GMC: No warppoints\nFormat settings, Matrix: Default (H.263)\nMuxing mode: Packed bitstream\nCodec ID: XVID\nCodec ID/Hint: XviD\nDuration: 1h 23mn\nBit rate: 1 249 Kbps\nWidth: 640 pixels\nHeight: 304 pixels\nDisplay aspect ratio: 2.105\nFrame rate: 25.000 fps\nColor space: YUV\nChroma subsampling: 4:2:0\nBit depth: 8 bits\nScan type: Progressive\nCompression mode: Lossy\nBits/(Pixel*Frame): 0.257\nStream size: 750 MiB (83%)\nWriting library: XviD 64\n\nAudio\nID: 1\nFormat: AC-3\nFormat/Info: Audio Coding 3\nMode extension: CM (complete main)\nFormat settings, Endianness: Big\nCodec ID: 2000\nDuration: 1h 23mn\nBit rate mode: Constant\nBit rate: 256 Kbps\nChannel(s): 2 channels\nChannel positions: Front: L R\nSampling rate: 48.0 KHz\nCompression mode: Lossy\nStream size: 154 MiB (17%)\nAlignment: Aligned on interleaves\nInterleave, duration: 64 ms (1.60 video frames)\nInterleave, preload duration: 192 ms\nTitle: track_1",
  "parsed": {
    "xt": "urn:btih:21664b98144a1c1b7a7d023601f10db1329a34c4",
    "dn": "Minions.2015.NEW.TS.XviD.AC3-The Muffin Stuffers",
    "tr": [
      "udp://exodus.desync.com:6969",
      "udp://open.demonii.com:1337",
      "udp://tracker.coppersurfer.tk:6969",
      "udp://tracker.openbittorrent.com:80"
    ],
    "infoHash": "21664b98144a1c1b7a7d023601f10db1329a34c4",
    "infoHashBuffer": {
      "type": "Buffer",
      "data": [
        33,
        102,
        75,
        152,
        20,
        74,
        28,
        27,
        122,
        125,
        2,
        54,
        1,
        241,
        13,
        177,
        50,
        154,
        52,
        196
      ]
    },
    "name": "Minions.2015.NEW.TS.XviD.AC3-The Muffin Stuffers",
    "announce": [
      "udp://exodus.desync.com:6969",
      "udp://open.demonii.com:1337",
      "udp://tracker.coppersurfer.tk:6969",
      "udp://tracker.openbittorrent.com:80"
    ],
    "urlList": []
  },
  "previous": 43,
  "peers": 41,
  "last_updated": "2016-12-26T18:40:44.598Z"
}